#!OML:ASF H:\Punching\Project 1\Capture day 1\Session 1\female.ASF
:FULLY-SPECIFIED
:DEGREES
1606
root -1.09347 14.8471 5.67234 13.3181 -7.7802 -0.745847
lowerback 1.77394 -3.61633 -2.47061
upperback -4.99378 -5.01941 -0.623155
thorax -6.02179 -2.39373 1.07349
lowerneck -7.07903 6.28783 14.6442
upperneck 33.9531 7.49602 -4.53527
head 13.4321 4.52893 -3.3187
rclavicle 2.94201e-014 -8.74653e-015
rhumerus 12.6369 29.0409 -80.9867
rradius 132.324
rwrist -46.0367
rhand -16.9149 -7.23116
rfingers 7.12502
rthumb 9.31749 -37.0053
lclavicle 2.94201e-014 -8.74653e-015
lhumerus 13.2671 -11.5186 71.3764
lradius 121.065
lwrist 40.5807
lhand -12.8829 37.2053
lfingers 7.12502
lthumb 13.2061 66.767
rfemur -49.0681 12.9637 8.94651
rtibia 47.6774
rfoot -10.2395 -5.7457
rtoes -3.80208
lfemur 7.59748 -4.38878 -6.2564
ltibia 21.6586
lfoot -12.6741 -2.93567
ltoes -34.9307
1607
root -1.11729 14.8619 5.66171 13.334 -5.64052 -0.628266
lowerback 2.13198 -3.33361 -2.37862
upperback -5.01135 -4.63959 -0.504255
thorax -6.25475 -2.20059 1.14621
lowerneck -7.60729 5.52053 13.5608
upperneck 33.9354 6.3409 -3.9319
head 13.3078 3.96364 -3.05383
rclavicle 3.51849e-014 -1.27222e-014
rhumerus 12.6778 28.0656 -80.5126
rradius 132.645
rwrist -46.4366
rhand -17.2401 -7.41763
rfingers 7.12502
rthumb 9.00363 -37.2055
lclavicle 3.51849e-014 -1.27222e-014
lhumerus 11.7512 -13.5602 72.8526
lradius 124.201
lwrist 40.6826
lhand -12.5227 36.6232
lfingers 7.12502
lthumb 13.5532 66.1621
rfemur -48.5194 12.0352 8.91297
rtibia 47.804
rfoot -10.4269 -6.76629
rtoes -3.61233
lfemur 6.23764 -5.19136 -5.49674
ltibia 22.4881
lfoot -12.5992 -3.78179
ltoes -34.475
1608
root -1.14157 14.8769 5.65113 13.3601 -3.46705 -0.589754
lowerback 2.48635 -3.05862 -2.20845
upperback -5.01206 -4.2624 -0.363426
thorax -6.47242 -2.01283 1.19369
lowerneck -8.09778 4.74855 12.5274
upperneck 33.8375 5.17892 -3.30792
head 13.1695 3.40359 -2.78718
rclavicle -1.60519e-014 1.51076e-014
rhumerus 12.7238 27.0739 -80.0161
rradius 132.989
rwrist -46.7345
rhand -17.5014 -7.58785
rfingers 7.12502
rthumb 8.75151 -37.3864
lclavicle -1.60519e-014 1.51076e-014
lhumerus 10.3382 -15.6083 74.1994
lradius 127.032
lwrist 40.5085
lhand -12.2258 36.0944
lfingers 7.12502
lthumb 13.8394 65.614
rfemur -47.9427 11.054 9.00034
rtibia 47.9055
rfoot -10.5876 -7.73667
rtoes -3.38897
lfemur 4.84267 -6.00024 -4.66496
ltibia 23.3201
lfoot -12.541 -4.5615
ltoes -33.994
1609
root -1.16627 14.8919 5.64135 13.3902 -1.28096 -0.637745
lowerback 2.8336 -2.77708 -1.93576
upperback -5.01648 -3.86746 -0.214398
thorax -6.69677 -1.82178 1.18713
lowerneck -8.50311 3.95279 11.5392
upperneck 33.6576 3.98293 -2.6458
head 13.0032 2.83836 -2.51659
rclavicle -2.88735e-014 -1.51076e-014
rhumerus 12.7133 26.0432 -79.5318
rradius 133.361
rwrist -46.9489
rhand -17.7152 -7.76162
rfingers 7.12502
rthumb 8.54514 -37.5687
lclavicle -2.88735e-014 -1.51076e-014
lhumerus 9.01535 -17.665 75.4359
lradius 129.571
lwrist 40.1271
lhand -11.9242 35.6039
lfingers 7.12502
lthumb 14.1301 65.1034
rfemur -47.3446 10.0417 9.21173
rtibia 47.9777
rfoot -10.7182 -8.66138
rtoes -3.12891
lfemur 3.43475 -6.80877 -3.75699
ltibia 24.1362
lfoot -12.4984 -5.27273
ltoes -33.5082
1610
root -1.19117 14.9071 5.63214 13.4286 0.895267 -0.774326
lowerback 3.14998 -2.48004 -1.54744
upperback -5.02062 -3.44079 -0.0703057
thorax -6.90985 -1.62231 1.10244
lowerneck -8.84235 3.12981 10.5984
upperneck 33.3982 2.74059 -1.935
head 12.8148 2.26314 -2.24015
rclavicle -4.37326e-015 5.56597e-015
rhumerus 12.6545 24.952 -79.0652
rradius 133.769
rwrist -47.1074
rhand -17.8732 -7.92415
rfingers 7.12502
rthumb 8.39272 -37.7374
lclavicle -4.37326e-015 5.56597e-015
lhumerus 7.80669 -19.7084 76.5604
lradius 131.836
lwrist 39.608
lhand -11.609 35.1368
lfingers 7.12502
lthumb 14.4337 64.6149
rfemur -46.749 9.01694 9.53929
rtibia 48.0139
rfoot -10.8188 -9.54146
rtoes -2.81739
lfemur 2.01949 -7.61182 -2.77435
ltibia 24.9188
lfoot -12.4729 -5.90721
ltoes -33.0515
1611
root -1.21606 14.9222 5.62361 13.4721 3.03816 -0.991841
lowerback 3.42077 -2.16887 -1.05837
upperback -5.02418 -2.98408 0.0704369
thorax -7.09902 -1.41491 0.948684
lowerneck -9.11305 2.28522 9.69425
upperneck 33.0614 1.46372 -1.17883
head 12.6074 1.68053 -1.95627
rclavicle 7.57867e-015 3.18055e-015
rhumerus 12.5618 23.8169 -78.6168
rradius 134.21
rwrist -47.2462
rhand -17.9851 -8.07251
rfingers 7.12502
rthumb 8.28467 -37.8901
lclavicle 7.57867e-015 3.18055e-015
lhumerus 6.72545 -21.6733 77.5725
lradius 133.841
lwrist 39.0436
lhand -11.2772 34.6886
lfingers 7.12502
lthumb 14.7535 64.1436
rfemur -46.1539 7.99655 9.96726
rtibia 47.9684
rfoot -10.8758 -10.3732
rtoes -2.40535
lfemur 0.651584 -8.40588 -1.73039
ltibia 25.5689
lfoot -12.4218 -6.45151
ltoes -32.6432
1612
root -1.2407 14.9371 5.61549 13.52 5.12951 -1.27978
lowerback 3.63346 -1.82247 -0.463756
upperback -5.02196 -2.47015 0.180686
thorax -7.25032 -1.18751 0.69177
lowerneck -9.34455 1.40689 8.85844
upperneck 32.6586 0.125282 -0.37921
head 12.3926 1.08162 -1.67517
rclavicle -3.05631e-015 -7.95139e-016
rhumerus 12.4429 22.5645 -78.1842
rradius 134.68
rwrist -47.4166
rhand -18.0722 -8.23105
rfingers 7.12502
rthumb 8.20062 -38.0519
lclavicle -3.05631e-015 -7.95139e-016
lhumerus 5.81678 -23.5916 78.4518
lradius 135.599
lwrist 38.5091
lhand -10.963 34.2473
lfingers 7.12502
lthumb 15.0561 63.6798
rfemur -45.5923 6.99589 10.4754
rtibia 47.8838
rfoot -10.9088 -11.1593
rtoes -1.9321
lfemur -0.709387 -9.18418 -0.638798
ltibia 26.1749
lfoot -12.3944 -6.91192
ltoes -32.275
1613
root -1.26603 14.9637 5.60964 13.5691 7.14288 -1.62025
lowerback 3.78384 -1.46336 0.181358
upperback -5.01481 -1.93158 0.29848
thorax -7.35402 -0.951922 0.405804
lowerneck -9.52017 0.525709 8.02495
upperneck 32.1958 -1.20687 0.445346
head 12.1732 0.485335 -1.38441
rclavicle 1.0958e-014 -7.95139e-015
rhumerus 12.3387 21.2849 -77.735
rradius 135.171
rwrist -47.6618
rhand -18.1268 -8.36769
rfingers 7.12502
rthumb 8.14793 -38.1906
lclavicle 1.0958e-014 -7.95139e-015
lhumerus 5.048 -25.3611 79.2224
lradius 137.142
lwrist 38.0334
lhand -10.7182 33.8188
lfingers 7.12502
lthumb 15.292 63.2335
rfemur -45.0214 6.04562 11.0488
rtibia 47.7255
rfoot -10.9406 -11.9108
rtoes -1.40392
lfemur -2.03976 -9.9336 0.463399
ltibia 26.706
lfoot -12.371 -7.27716
ltoes -31.9519
1614
root -1.28905 14.9767 5.60153 13.616 9.06597 -1.98004
lowerback 3.88115 -1.08816 0.839078
upperback -5.0037 -1.36841 0.416868
thorax -7.41388 -0.705764 0.106488
lowerneck -9.65679 -0.354672 7.19729
upperneck 31.697 -2.52513 1.27671
head 11.9627 -0.106338 -1.09132
rclavicle 1.17034e-014 2.10712e-014
rhumerus 12.2517 19.9629 -77.2622
rradius 135.666
rwrist -48.003
rhand -18.1705 -8.5151
rfingers 7.12502
rthumb 8.10579 -38.3396
lclavicle 1.17034e-014 2.10712e-014
lhumerus 4.41865 -26.9893 79.8835
lradius 138.503
lwrist 37.6436
lhand -10.5874 33.4247
lfingers 7.12502
lthumb 15.4179 62.8298
rfemur -44.5584 5.11654 11.6212
rtibia 47.5891
rfoot -10.9497 -12.5919
rtoes -0.809108
lfemur -3.34016 -10.6572 1.55581
ltibia 27.2032
lfoot -12.3822 -7.55504
ltoes -31.6862
1615
root -1.31119 14.9884 5.59305 13.6604 10.8759 -2.32582
lowerback 3.9375 -0.697871 1.45537
upperback -4.98984 -0.786961 0.539827
thorax -7.43628 -0.448511 -0.169314
lowerneck -9.75641 -1.22287 6.36685
upperneck 31.18 -3.80667 2.09479
head 11.7675 -0.68623 -0.799744
rclavicle -4.09993e-016 -5.96354e-016
rhumerus 12.1861 18.6391 -76.7617
rradius 136.148
rwrist -48.3874
rhand -18.2372 -8.67171
rfingers 7.12502
rthumb 8.04142 -38.4987
lclavicle -4.09993e-016 -5.96354e-016
lhumerus 3.91629 -28.4693 80.4436
lradius 139.714
lwrist 37.3303
lhand -10.6039 33.0903
lfingers 7.12502
lthumb 15.4021 62.4966
rfemur -44.1527 4.23424 12.1656
rtibia 47.451
rfoot -10.9601 -13.2153
rtoes -0.212107
lfemur -4.58231 -11.3532 2.5835
ltibia 27.6343
lfoot -12.404 -7.728
ltoes -31.4782
1616
root -1.33245 14.9987 5.5846 13.7048 12.5495 -2.61267
lowerback 3.96258 -0.291799 1.97172
upperback -4.97901 -0.191889 0.662122
thorax -7.43344 -0.179039 -0.392242
lowerneck -9.80102 -2.07206 5.52959
upperneck 30.66 -5.03629 2.88259
head 11.5879 -1.2497 -0.513504
rclavicle 2.48232e-014 -1.30204e-014
rhumerus 12.128 17.3333 -76.2363
rradius 136.596
rwrist -48.772
rhand -18.2892 -8.81304
rfingers 7.12502
rthumb 7.9912 -38.642
lclavicle 2.48232e-014 -1.30204e-014
lhumerus 3.51553 -29.802 80.9228
lradius 140.787
lwrist 37.0698
lhand -10.7561 32.8262
lfingers 7.12502
lthumb 15.2554 62.2436
rfemur -43.8213 3.40277 12.6336
rtibia 47.3749
rfoot -11.0148 -13.7797
rtoes 0.325454
lfemur -5.77654 -12.0282 3.48738
ltibia 28.0713
lfoot -12.4766 -7.79157
ltoes -31.3118
